<?xml version="1.0" standalone="no"?>
<!DOCTYPE svg PUBLIC "-//W3C//DTD SVG 20010904//EN"
 "http://www.w3.org/TR/2001/REC-SVG-20010904/DTD/svg10.dtd">
<svg version="1.0" xmlns="http://www.w3.org/2000/svg"
 width="136.000000pt" height="205.000000pt" viewBox="0 0 136.000000 205.000000"
 preserveAspectRatio="xMidYMid meet">
<metadata>
Created by potrace 1.16, written by Peter Selinger 2001-2019
</metadata>
<g transform="translate(0.000000,205.000000) scale(0.100000,-0.100000)"
fill="#000000" stroke="none">
<path d="M867 2003 c-4 -3 -7 -25 -7 -48 0 -24 -3 -57 -6 -74 -6 -30 -8 -31
-64 -31 l-57 0 -18 74 c-10 41 -23 73 -29 71 -6 -2 -36 -11 -68 -19 l-56 -16
20 -66 c11 -37 16 -69 11 -73 -4 -4 -27 -16 -51 -26 l-43 -19 -40 47 -40 47
-50 -42 c-27 -22 -49 -45 -49 -49 0 -5 13 -24 30 -42 16 -19 30 -39 30 -43 -1
-5 -16 -26 -34 -47 l-34 -38 -49 20 -50 20 -25 -64 -26 -63 50 -21 c44 -18 50
-24 44 -43 -3 -13 -6 -40 -6 -60 l0 -38 -56 0 -57 0 7 -46 c3 -26 6 -60 6 -75
0 -29 0 -29 63 -29 62 0 63 0 82 -37 25 -48 108 -137 160 -173 22 -15 124 -64
228 -110 194 -85 263 -129 309 -197 75 -110 61 -261 -32 -354 -118 -117 -360
-131 -585 -33 -44 20 -85 38 -92 40 -7 4 -21 -26 -38 -80 -14 -48 -28 -92 -31
-99 -7 -18 106 -69 216 -99 112 -29 349 -32 449 -5 291 79 448 321 390 599
-37 175 -144 277 -419 397 -179 78 -248 119 -299 177 -92 105 -74 271 40 354
70 50 126 63 258 58 102 -4 127 -9 208 -40 l91 -35 57 161 c30 89 57 165 58
169 1 5 -26 19 -61 32 l-63 23 -10 -27 c-5 -14 -17 -45 -26 -69 l-16 -43 -41
7 c-23 3 -45 9 -49 11 -5 3 -6 40 -2 83 7 75 6 77 -17 83 -31 9 -103 9 -111 0z"/>
<path d="M1041 1352 c-19 -31 -52 -88 -74 -127 -22 -38 -45 -74 -51 -78 -13
-9 -154 1 -177 13 -8 5 -20 5 -27 1 -13 -8 9 -20 151 -83 82 -35 90 -37 110
-23 12 8 16 15 10 15 -7 0 11 66 43 162 30 88 53 165 52 169 -2 4 -18 -18 -37
-49z"/>
<path d="M496 868 c-80 -195 -137 -341 -134 -349 2 -5 45 52 96 126 91 131
124 166 137 145 4 -6 12 -7 18 -3 7 5 57 10 111 13 l99 5 -144 63 c-80 34
-148 62 -151 62 -3 0 -17 -28 -32 -62z"/>
</g>
</svg>
